<svg width="24" height="24" viewBox="0 0 24 24" fill="none" xmlns="http://www.w3.org/2000/svg">
<rect width="24" height="24" fill="white"/>
<path d="M5.33729 13.9679V8.15387C5.44751 5.00038 8.036 2.5 11.1924 2.5H12.9254C16.0043 2.5 18.5318 4.93375 18.6492 8.00933L18.6492 13.9666C18.6492 14.2983 18.7592 14.6207 18.9619 14.8833L20.3603 16.6944C20.6141 17.0231 20.3798 17.5 19.9645 17.5H4.02958C3.61486 17.5 3.38042 17.0242 3.63311 16.6953L5.02669 14.8818C5.2281 14.6197 5.33729 14.2984 5.33729 13.9679Z" stroke="#4FAAFF"/>
<path d="M8 18C8 19 9.09979 21.5 12 21.5C14.6253 21.5 16 19 16 18" stroke="#4FAAFF"/>
</svg>
