<svg width="24" height="24" viewBox="0 0 24 24" fill="none" xmlns="http://www.w3.org/2000/svg">
<path d="M21.5 11.5C21.5 11.8529 21.2852 12.471 20.7921 13.2476C20.3124 14.0029 19.6107 14.8435 18.737 15.628C16.983 17.203 14.5969 18.5 12 18.5C9.37375 18.5 6.98345 17.4285 5.24801 15.9901C3.48972 14.5326 2.5 12.7849 2.5 11.5C2.5 11.1471 2.71478 10.529 3.20794 9.75241C3.68757 8.9971 4.38933 8.15655 5.263 7.37202C7.01701 5.79697 9.4031 4.5 12 4.5C14.5969 4.5 16.983 5.79697 18.737 7.37202C19.6107 8.15655 20.3124 8.9971 20.7921 9.75241C21.2852 10.529 21.5 11.1471 21.5 11.5Z" stroke="current"/>
<path d="M15.5 11.5C15.5 13.0962 13.9978 14.5 12 14.5C10.0022 14.5 8.5 13.0962 8.5 11.5C8.5 9.90377 10.0022 8.5 12 8.5C13.9978 8.5 15.5 9.90377 15.5 11.5Z" stroke="current"/>
</svg>
